<mxfile host="app.diagrams.net" modified="2021-04-19T13:31:17.706Z" agent="5.0 (Windows)" etag="DzEMFROZzq4krE50Z7IX" version="14.6.2" type="github">
  <diagram name="Page-1" id="c7558073-3199-34d8-9f00-42111426c3f3">
    <mxGraphModel dx="1038" dy="583" grid="1" gridSize="10" guides="1" tooltips="1" connect="1" arrows="1" fold="1" page="1" pageScale="1" pageWidth="826" pageHeight="1169" background="#ffffff" math="0" shadow="0">
      <root>
        <mxCell id="0" />
        <mxCell id="1" parent="0" />
        <mxCell id="62" value="Progress&#xa;reports" style="text;spacingTop=-5;align=center" parent="1" vertex="1">
          <mxGeometry x="545.0000000000001" y="100.00000000000003" width="30" height="20" as="geometry" />
        </mxCell>
        <mxCell id="Tbv6bZ3x7e-9m1xL4fY9-132" style="edgeStyle=orthogonalEdgeStyle;rounded=0;orthogonalLoop=1;jettySize=auto;html=1;strokeWidth=2;" edge="1" parent="1" source="Tbv6bZ3x7e-9m1xL4fY9-118" target="Tbv6bZ3x7e-9m1xL4fY9-126">
          <mxGeometry relative="1" as="geometry" />
        </mxCell>
        <mxCell id="Tbv6bZ3x7e-9m1xL4fY9-118" value="" style="shape=actor;whiteSpace=wrap;html=1;" vertex="1" parent="1">
          <mxGeometry x="40" y="270" width="30" height="50" as="geometry" />
        </mxCell>
        <mxCell id="Tbv6bZ3x7e-9m1xL4fY9-137" style="edgeStyle=orthogonalEdgeStyle;rounded=0;orthogonalLoop=1;jettySize=auto;html=1;fillColor=#e3c800;strokeColor=#B09500;strokeWidth=2;" edge="1" parent="1" source="Tbv6bZ3x7e-9m1xL4fY9-120" target="Tbv6bZ3x7e-9m1xL4fY9-127">
          <mxGeometry relative="1" as="geometry" />
        </mxCell>
        <mxCell id="Tbv6bZ3x7e-9m1xL4fY9-138" style="edgeStyle=orthogonalEdgeStyle;rounded=0;orthogonalLoop=1;jettySize=auto;html=1;fillColor=#e51400;strokeColor=#B20000;strokeWidth=2;" edge="1" parent="1" source="Tbv6bZ3x7e-9m1xL4fY9-120" target="Tbv6bZ3x7e-9m1xL4fY9-125">
          <mxGeometry relative="1" as="geometry">
            <Array as="points">
              <mxPoint x="10" y="800" />
              <mxPoint x="10" y="490" />
            </Array>
          </mxGeometry>
        </mxCell>
        <mxCell id="Tbv6bZ3x7e-9m1xL4fY9-120" value="" style="shape=cube;whiteSpace=wrap;html=1;boundedLbl=1;backgroundOutline=1;darkOpacity=0.05;darkOpacity2=0.1;" vertex="1" parent="1">
          <mxGeometry x="40" y="750" width="150" height="100" as="geometry" />
        </mxCell>
        <object label="" placeholders="1" id="Tbv6bZ3x7e-9m1xL4fY9-121">
          <mxCell style="shape=cube;whiteSpace=wrap;html=1;boundedLbl=1;backgroundOutline=1;darkOpacity=0.05;darkOpacity2=0.1;" vertex="1" parent="1">
            <mxGeometry x="660" y="760" width="140" height="100" as="geometry" />
          </mxCell>
        </object>
        <mxCell id="Tbv6bZ3x7e-9m1xL4fY9-135" style="edgeStyle=orthogonalEdgeStyle;rounded=0;orthogonalLoop=1;jettySize=auto;html=1;entryX=0.5;entryY=0;entryDx=0;entryDy=0;fillColor=#0050ef;strokeColor=#001DBC;strokeWidth=2;" edge="1" parent="1" source="Tbv6bZ3x7e-9m1xL4fY9-125" target="Tbv6bZ3x7e-9m1xL4fY9-127">
          <mxGeometry relative="1" as="geometry" />
        </mxCell>
        <mxCell id="Tbv6bZ3x7e-9m1xL4fY9-142" style="edgeStyle=orthogonalEdgeStyle;rounded=0;orthogonalLoop=1;jettySize=auto;html=1;entryX=1;entryY=0.5;entryDx=0;entryDy=0;fillColor=#e3c800;strokeColor=#B09500;strokeWidth=2;" edge="1" parent="1" source="Tbv6bZ3x7e-9m1xL4fY9-125" target="Tbv6bZ3x7e-9m1xL4fY9-126">
          <mxGeometry relative="1" as="geometry">
            <Array as="points">
              <mxPoint x="760" y="475" />
              <mxPoint x="760" y="295" />
            </Array>
          </mxGeometry>
        </mxCell>
        <mxCell id="Tbv6bZ3x7e-9m1xL4fY9-144" style="edgeStyle=orthogonalEdgeStyle;rounded=0;orthogonalLoop=1;jettySize=auto;html=1;fillColor=#e51400;strokeColor=#B20000;strokeWidth=2;" edge="1" parent="1" source="Tbv6bZ3x7e-9m1xL4fY9-125" target="Tbv6bZ3x7e-9m1xL4fY9-121">
          <mxGeometry relative="1" as="geometry">
            <Array as="points">
              <mxPoint x="735" y="510" />
            </Array>
          </mxGeometry>
        </mxCell>
        <mxCell id="Tbv6bZ3x7e-9m1xL4fY9-125" value="" style="shape=process;whiteSpace=wrap;html=1;backgroundOutline=1;" vertex="1" parent="1">
          <mxGeometry x="185" y="390" width="490" height="170" as="geometry" />
        </mxCell>
        <mxCell id="Tbv6bZ3x7e-9m1xL4fY9-126" value="" style="rounded=1;whiteSpace=wrap;html=1;" vertex="1" parent="1">
          <mxGeometry x="170" y="260" width="150" height="70" as="geometry" />
        </mxCell>
        <mxCell id="Tbv6bZ3x7e-9m1xL4fY9-128" value="" style="group" vertex="1" connectable="0" parent="1">
          <mxGeometry x="320" y="630" width="220" height="100" as="geometry" />
        </mxCell>
        <mxCell id="Tbv6bZ3x7e-9m1xL4fY9-127" value="" style="shape=hexagon;perimeter=hexagonPerimeter2;whiteSpace=wrap;html=1;fixedSize=1;" vertex="1" parent="Tbv6bZ3x7e-9m1xL4fY9-128">
          <mxGeometry width="220" height="100" as="geometry" />
        </mxCell>
        <mxCell id="Tbv6bZ3x7e-9m1xL4fY9-119" value="" style="shape=switch;whiteSpace=wrap;html=1;" vertex="1" parent="Tbv6bZ3x7e-9m1xL4fY9-128">
          <mxGeometry x="39.416666666666664" width="141.16666666666666" height="100" as="geometry" />
        </mxCell>
        <mxCell id="Tbv6bZ3x7e-9m1xL4fY9-136" style="edgeStyle=orthogonalEdgeStyle;rounded=0;orthogonalLoop=1;jettySize=auto;html=1;fillColor=#0050ef;strokeColor=#001DBC;strokeWidth=2;" edge="1" parent="1" source="Tbv6bZ3x7e-9m1xL4fY9-127" target="Tbv6bZ3x7e-9m1xL4fY9-120">
          <mxGeometry relative="1" as="geometry" />
        </mxCell>
        <mxCell id="Tbv6bZ3x7e-9m1xL4fY9-140" style="edgeStyle=orthogonalEdgeStyle;rounded=0;orthogonalLoop=1;jettySize=auto;html=1;entryX=0.802;entryY=1.047;entryDx=0;entryDy=0;entryPerimeter=0;fillColor=#e3c800;strokeColor=#B09500;strokeWidth=2;" edge="1" parent="1" source="Tbv6bZ3x7e-9m1xL4fY9-127" target="Tbv6bZ3x7e-9m1xL4fY9-125">
          <mxGeometry relative="1" as="geometry">
            <Array as="points">
              <mxPoint x="578" y="680" />
            </Array>
          </mxGeometry>
        </mxCell>
        <mxCell id="Tbv6bZ3x7e-9m1xL4fY9-149" value="" style="endArrow=classic;html=1;fillColor=#0050ef;exitX=0.347;exitY=0.957;exitDx=0;exitDy=0;exitPerimeter=0;strokeColor=#001DBC;strokeWidth=2;" edge="1" parent="1" source="Tbv6bZ3x7e-9m1xL4fY9-126">
          <mxGeometry relative="1" as="geometry">
            <mxPoint x="260" y="360" as="sourcePoint" />
            <mxPoint x="400" y="380" as="targetPoint" />
            <Array as="points">
              <mxPoint x="222" y="360" />
              <mxPoint x="400" y="360" />
            </Array>
          </mxGeometry>
        </mxCell>
        <mxCell id="Tbv6bZ3x7e-9m1xL4fY9-150" value="Label" style="edgeLabel;resizable=0;html=1;align=center;verticalAlign=middle;" connectable="0" vertex="1" parent="Tbv6bZ3x7e-9m1xL4fY9-149">
          <mxGeometry relative="1" as="geometry" />
        </mxCell>
      </root>
    </mxGraphModel>
  </diagram>
</mxfile>
